PathFileType	4	(X/Y/Z)
DataRate	CameraRate	NumFrames	NumMarkers	Units	OrigDataRate	OrigDataStartFrame	OrigNumFrames	
  100.0	  100.0	    4	     56	     mm	  100.0	      127	    253
Frame#	Time	LASI			RASI			LPSI			RPSI			RTH1			RTH2			RTH3			RLFC			RMFC			LTH1			LTH2			LTH3			LLFC			LMFC			RTB1			RTB2			RTB3			RLMAL			RMMAL			LTB1			LTB2			LTB3			LMMAL			LLMAL			RCAL			RTOE			RMT5			LCAL			LTOE			LMT5			LACR			RACR			CLAV			C7			LASH			LPSH			RASH			RPSH			RUA1			RUA2			RUA3			RLEL			RMEL			LUA1			LUA2			LUA3			LLEL			LMEL			RFAsuperior			RFAradius			RFAulna			LFAsuperior			LFAradius			LFAulna			RHJC			LHJC			
		X1	Y1	Z1	X2	Y2	Z2	X3	Y3	Z3	X4	Y4	Z4	X5	Y5	Z5	X6	Y6	Z6	X7	Y7	Z7	X8	Y8	Z8	X9	Y9	Z9	X10	Y10	Z10	X11	Y11	Z11	X12	Y12	Z12	X13	Y13	Z13	X14	Y14	Z14	X15	Y15	Z15	X16	Y16	Z16	X17	Y17	Z17	X18	Y18	Z18	X19	Y19	Z19	X20	Y20	Z20	X21	Y21	Z21	X22	Y22	Z22	X23	Y23	Z23	X24	Y24	Z24	X25	Y25	Z25	X26	Y26	Z26	X27	Y27	Z27	X28	Y28	Z28	X29	Y29	Z29	X30	Y30	Z30	X31	Y31	Z31	X32	Y32	Z32	X33	Y33	Z33	X34	Y34	Z34	X35	Y35	Z35	X36	Y36	Z36	X37	Y37	Z37	X38	Y38	Z38	X39	Y39	Z39	X40	Y40	Z40	X41	Y41	Z41	X42	Y42	Z42	X43	Y43	Z43	X44	Y44	Z44	X45	Y45	Z45	X46	Y46	Z46	X47	Y47	Z47	X48	Y48	Z48	X49	Y49	Z49	X50	Y50	Z50	X51	Y51	Z51	X52	Y52	Z52	X53	Y53	Z53	X54	Y54	Z54	X55	Y55	Z55	X56	Y56	Z56	

144	1.44000	507.28896	1049.99756	-632.71678	525.84299	1043.61119	-361.93573	344.11491	1064.86299	-540.62753	345.86733	1062.87483	-440.52450	422.79065	861.50932	-305.08240	504.07357	759.71795	-306.16353	426.96061	639.44678	-320.39616	465.86935	520.05149	-314.22194	455.54554	509.10004	-438.92034	432.83372	863.16092	-683.49532	502.49617	737.16869	-682.27715	449.89098	618.90916	-677.78173	465.76140	526.43690	-676.79768	456.03723	517.11611	-550.75266	483.57960	389.30972	-363.99861	454.09145	341.69677	-293.09957	459.66784	225.58224	-346.55545	406.92277	113.13758	-289.31233	433.42661	119.99648	-381.26687	480.72370	378.22775	-626.95088	423.26123	306.67264	-696.25139	458.69273	223.67837	-632.89644	436.11578	122.11123	-590.81115	415.21687	117.36581	-681.66493	339.35069	100.34318	-340.72597	563.41435	69.72089	-349.17838	515.01473	59.08120	-258.33862	338.48147	96.78175	-624.94123	572.02365	69.33789	-636.73119	507.01128	53.18356	-724.28823	582.34642	1516.83011	-645.40628	603.50000	1498.62950	-348.51616	630.12744	1413.02237	-471.71849	550.49815	1528.58738	-492.95579	615.48351	1445.16085	-659.45570	498.79869	1494.35667	-670.37234	616.64060	1422.94635	-343.26830	504.37710	1495.28215	-318.68591	553.35338	1487.49266	-247.77406	491.96114	1423.12139	-224.35335	525.21555	1427.98830	-150.26801	507.62242	1387.67528	-46.89012	484.90066	1317.15871	-85.63244	524.36514	1488.11748	-741.72745	487.61277	1403.86640	-766.42006	495.02312	1405.89719	-853.74834	505.54807	1374.35220	-939.59234	490.18258	1309.54895	-895.96379	615.92591	1373.98049	-43.69590	762.54571	1338.49364	-69.30024	742.11696	1272.20574	-57.88647	615.19489	1362.11746	-954.64872	766.25758	1324.80329	-942.97511	753.25307	1255.08391	-943.84299	448.90612	955.32295	-400.49286	442.36620	966.46091	-575.17681	
145	1.45000	507.28558	1050.00374	-632.73212	526.05613	1043.60137	-361.84103	341.71567	1065.49635	-539.71715	345.99146	1062.67040	-440.49595	422.80068	861.47345	-305.05869	504.07623	759.68537	-306.12192	426.99332	639.42441	-320.37539	465.93300	520.05808	-314.17179	455.53606	509.09625	-438.92417	430.71835	862.99145	-681.36389	502.13733	737.18489	-682.37724	447.65576	618.40728	-675.28187	465.56791	526.48028	-676.70026	456.04293	517.12591	-550.75167	483.55655	389.36344	-363.95230	454.07136	341.73292	-293.10485	459.65007	225.66535	-346.42811	406.94857	113.14009	-289.29933	433.78082	120.20499	-381.08665	480.76158	378.31054	-626.82104	423.62580	306.79058	-696.36544	458.78089	223.60376	-632.62145	436.12385	122.07728	-590.76998	411.92468	118.29808	-681.39999	339.34260	100.30121	-340.64395	563.33520	70.03460	-348.38961	514.14131	59.53548	-257.87414	338.87149	96.74008	-624.83964	570.26924	68.59024	-637.62527	507.29136	53.43197	-723.91849	582.16751	1517.00841	-645.33560	603.52222	1498.59309	-348.47301	629.72728	1413.15274	-471.80007	550.10614	1528.72060	-493.04457	614.59895	1445.48299	-659.69350	498.00009	1494.67038	-669.99997	616.69933	1422.89945	-343.19627	504.38735	1495.16801	-318.68058	552.92934	1487.58948	-247.84258	491.99275	1423.00261	-224.33423	525.22866	1427.94842	-150.24730	507.19987	1387.75673	-46.91157	484.78514	1317.19304	-85.59934	523.69198	1488.38426	-741.11525	485.49212	1404.28515	-765.46114	492.86771	1406.25885	-852.79451	503.96353	1374.74116	-938.38404	490.15022	1309.51780	-895.94646	615.94281	1373.95576	-43.66340	762.53661	1338.49311	-69.25232	742.12193	1272.20589	-57.86220	614.64272	1362.32904	-954.63735	766.10251	1324.92121	-942.90053	753.09504	1255.11872	-943.89126	448.75177	955.38022	-400.29784	441.83610	966.54859	-574.97295	
146	1.46000	507.27918	1050.00509	-632.74912	526.11982	1043.59980	-361.81736	339.14267	1066.16570	-538.72829	345.96329	1062.63210	-440.47325	422.79698	861.45379	-305.05156	504.07397	759.67078	-306.10400	427.01569	639.40823	-320.37059	465.96686	520.05957	-314.15314	455.52915	509.08831	-438.93102	428.47479	862.82393	-679.01102	501.75579	737.21881	-682.45013	445.23125	617.85713	-672.60506	465.29244	526.44218	-676.71428	456.02753	517.12361	-550.75976	483.00914	389.29766	-364.02895	454.09886	341.71587	-293.09114	459.29979	225.57714	-346.48497	406.96307	113.13488	-289.28778	433.44810	120.22939	-381.04734	480.35408	378.31659	-626.82269	422.87509	306.68160	-695.65729	457.82133	223.27101	-631.54999	436.12698	122.06136	-590.75247	409.21379	118.84869	-680.93680	339.34809	100.30628	-340.56944	563.32994	69.99307	-348.16681	513.22308	59.83735	-257.67131	338.29623	96.87535	-624.53662	568.71708	67.79289	-638.60225	507.41234	53.44678	-723.84669	581.81840	1517.04615	-645.46115	603.51923	1498.56827	-348.45634	628.99717	1413.31287	-472.09555	549.38413	1528.88353	-493.34727	614.08588	1445.60914	-659.87683	496.52989	1495.10624	-669.40848	616.72369	1422.87721	-343.16084	504.39806	1495.06002	-318.71264	552.44626	1487.73132	-247.93000	491.99851	1422.93132	-224.33444	525.21935	1427.93596	-150.23930	507.00215	1387.76952	-46.93584	484.59633	1317.25061	-85.55115	522.82926	1488.71615	-740.50250	483.23329	1404.73410	-764.44748	490.58304	1406.65823	-851.75885	502.25135	1375.14373	-937.10309	490.13525	1309.44147	-895.87198	615.94015	1373.95338	-43.64877	762.51933	1338.51130	-69.21949	742.11337	1272.22099	-57.84408	614.18737	1362.40974	-954.75280	765.66801	1325.05826	-942.99706	752.64828	1255.23581	-944.00812	448.47693	955.47418	-400.11055	441.12830	966.67899	-574.77716	
147	1.47000	507.26145	1050.00334	-632.76612	526.06452	1043.60319	-361.84361	337.05151	1066.71091	-537.92448	345.83885	1062.71851	-440.45989	422.78436	861.45447	-305.05999	504.06980	759.67396	-306.10722	427.02368	639.40223	-320.38004	465.96672	520.05604	-314.16278	455.53123	509.08228	-438.94031	426.68897	862.70264	-677.07061	501.60770	737.24473	-682.45340	443.26590	617.40659	-670.44672	465.14143	526.35162	-676.83455	456.02475	517.11870	-550.77015	482.27959	389.16368	-364.16924	454.18901	341.65375	-293.05175	458.87833	225.38913	-346.65805	406.97885	113.13706	-289.27257	432.60504	120.07667	-381.15012	479.74137	378.24827	-626.94222	421.24141	306.31764	-694.25143	456.12989	222.73542	-629.93332	436.12819	122.06321	-590.75611	407.64651	118.90590	-680.33845	339.36793	100.35448	-340.51296	563.07927	69.37863	-348.85859	512.59582	59.88608	-257.73189	336.97094	97.15364	-624.14536	567.83650	67.18118	-639.35873	507.00582	53.10520	-724.29625	581.52533	1516.92512	-645.68822	603.49141	1498.55365	-348.46505	628.29628	1413.41925	-472.43107	548.69134	1528.99269	-493.69000	614.09579	1445.50303	-659.95301	494.61011	1495.57781	-668.65959	616.70690	1422.87012	-343.16486	504.39167	1495.00276	-318.74377	552.05698	1487.86440	-248.00189	491.97110	1422.92969	-224.33134	525.18449	1427.95085	-150.24321	507.08132	1387.71658	-46.94698	484.43928	1317.31061	-85.51008	522.03387	1489.02340	-740.04485	481.40550	1405.09787	-763.64173	488.75194	1406.99503	-850.93312	500.83463	1375.45401	-936.07021	490.13961	1309.34057	-895.75595	615.91534	1373.97459	-43.64908	762.49783	1338.54538	-69.20356	742.08813	1272.25473	-57.82546	614.04293	1362.31374	-954.93675	765.18458	1325.15044	-943.19947	752.14054	1255.37228	-944.13441	448.17446	955.57351	-399.97391	440.46077	966.81062	-574.63330	
